<svg xmlns="http://www.w3.org/2000/svg" version="1.1" xmlns:xlink="http://www.w3.org/1999/xlink" xmlns:svgjs="http://svgjs.dev/svgjs" width="1440" height="1080" preserveAspectRatio="none" viewBox="0 0 1440 1080"><g mask="url(&quot;#SvgjsMask1047&quot;)" fill="none"><rect width="1440" height="1080" x="0" y="0" fill="rgba(255, 255, 255, 1)"></rect><path d="M72 562L71 -170" stroke-width="8" stroke="url(&quot;#SvgjsLinearGradient1048&quot;)" stroke-linecap="round" class="Down"></path><path d="M823 152L822 -635" stroke-width="8" stroke="url(&quot;#SvgjsLinearGradient1048&quot;)" stroke-linecap="round" class="Down"></path><path d="M977 433L976 -28" stroke-width="6" stroke="url(&quot;#SvgjsLinearGradient1049&quot;)" stroke-linecap="round" class="Up"></path><path d="M80 871L79 494" stroke-width="8" stroke="url(&quot;#SvgjsLinearGradient1049&quot;)" stroke-linecap="round" class="Up"></path><path d="M114 321L113 716" stroke-width="10" stroke="url(&quot;#SvgjsLinearGradient1048&quot;)" stroke-linecap="round" class="Down"></path><path d="M937 143L936 -347" stroke-width="8" stroke="url(&quot;#SvgjsLinearGradient1049&quot;)" stroke-linecap="round" class="Up"></path><path d="M944 775L943 241" stroke-width="8" stroke="url(&quot;#SvgjsLinearGradient1049&quot;)" stroke-linecap="round" class="Up"></path><path d="M819 751L818 95" stroke-width="10" stroke="url(&quot;#SvgjsLinearGradient1048&quot;)" stroke-linecap="round" class="Down"></path><path d="M498 600L497 1274" stroke-width="8" stroke="url(&quot;#SvgjsLinearGradient1049&quot;)" stroke-linecap="round" class="Up"></path><path d="M1209 886L1208 1397" stroke-width="6" stroke="url(&quot;#SvgjsLinearGradient1048&quot;)" stroke-linecap="round" class="Down"></path><path d="M262 327L261 684" stroke-width="10" stroke="url(&quot;#SvgjsLinearGradient1049&quot;)" stroke-linecap="round" class="Up"></path><path d="M1030 495L1029 -114" stroke-width="6" stroke="url(&quot;#SvgjsLinearGradient1048&quot;)" stroke-linecap="round" class="Down"></path><path d="M971 160L970 -275" stroke-width="10" stroke="url(&quot;#SvgjsLinearGradient1049&quot;)" stroke-linecap="round" class="Up"></path><path d="M41 149L40 900" stroke-width="6" stroke="url(&quot;#SvgjsLinearGradient1048&quot;)" stroke-linecap="round" class="Down"></path><path d="M227 174L226 930" stroke-width="6" stroke="url(&quot;#SvgjsLinearGradient1048&quot;)" stroke-linecap="round" class="Down"></path><path d="M1138 9L1137 563" stroke-width="10" stroke="url(&quot;#SvgjsLinearGradient1048&quot;)" stroke-linecap="round" class="Down"></path><path d="M1241 331L1240 -28" stroke-width="8" stroke="url(&quot;#SvgjsLinearGradient1049&quot;)" stroke-linecap="round" class="Up"></path><path d="M350 161L349 746" stroke-width="8" stroke="url(&quot;#SvgjsLinearGradient1049&quot;)" stroke-linecap="round" class="Up"></path><path d="M735 869L734 494" stroke-width="8" stroke="url(&quot;#SvgjsLinearGradient1048&quot;)" stroke-linecap="round" class="Down"></path><path d="M27 902L26 161" stroke-width="10" stroke="url(&quot;#SvgjsLinearGradient1048&quot;)" stroke-linecap="round" class="Down"></path><path d="M133 581L132 1004" stroke-width="10" stroke="url(&quot;#SvgjsLinearGradient1048&quot;)" stroke-linecap="round" class="Down"></path><path d="M743 989L742 438" stroke-width="6" stroke="url(&quot;#SvgjsLinearGradient1048&quot;)" stroke-linecap="round" class="Down"></path><path d="M1189 246L1188 -190" stroke-width="6" stroke="url(&quot;#SvgjsLinearGradient1049&quot;)" stroke-linecap="round" class="Up"></path><path d="M1324 540L1323 114" stroke-width="8" stroke="url(&quot;#SvgjsLinearGradient1048&quot;)" stroke-linecap="round" class="Down"></path><path d="M866 18L865 485" stroke-width="10" stroke="url(&quot;#SvgjsLinearGradient1048&quot;)" stroke-linecap="round" class="Down"></path><path d="M1336 25L1335 -671" stroke-width="6" stroke="url(&quot;#SvgjsLinearGradient1049&quot;)" stroke-linecap="round" class="Up"></path><path d="M1315 645L1314 1176" stroke-width="6" stroke="url(&quot;#SvgjsLinearGradient1049&quot;)" stroke-linecap="round" class="Up"></path><path d="M785 252L784 -348" stroke-width="6" stroke="url(&quot;#SvgjsLinearGradient1049&quot;)" stroke-linecap="round" class="Up"></path><path d="M467 656L466 983" stroke-width="6" stroke="url(&quot;#SvgjsLinearGradient1049&quot;)" stroke-linecap="round" class="Up"></path><path d="M1332 437L1331 1081" stroke-width="10" stroke="url(&quot;#SvgjsLinearGradient1049&quot;)" stroke-linecap="round" class="Up"></path><path d="M1012 27L1011 -670" stroke-width="8" stroke="url(&quot;#SvgjsLinearGradient1049&quot;)" stroke-linecap="round" class="Up"></path><path d="M1390 7L1389 475" stroke-width="10" stroke="url(&quot;#SvgjsLinearGradient1049&quot;)" stroke-linecap="round" class="Up"></path><path d="M1262 382L1261 1002" stroke-width="8" stroke="url(&quot;#SvgjsLinearGradient1049&quot;)" stroke-linecap="round" class="Up"></path><path d="M943 397L942 -152" stroke-width="10" stroke="url(&quot;#SvgjsLinearGradient1048&quot;)" stroke-linecap="round" class="Down"></path><path d="M894 152L893 705" stroke-width="10" stroke="url(&quot;#SvgjsLinearGradient1049&quot;)" stroke-linecap="round" class="Up"></path><path d="M1023 899L1022 1558" stroke-width="6" stroke="url(&quot;#SvgjsLinearGradient1048&quot;)" stroke-linecap="round" class="Down"></path></g><defs><mask id="SvgjsMask1047"><rect width="1440" height="1080" fill="#ffffff"></rect></mask><linearGradient x1="0%" y1="0%" x2="0%" y2="100%" id="SvgjsLinearGradient1048"><stop stop-color="rgba(28, 83, 142, 0)" offset="0"></stop><stop stop-color="#1c538e" offset="1"></stop></linearGradient><linearGradient x1="0%" y1="100%" x2="0%" y2="0%" id="SvgjsLinearGradient1049"><stop stop-color="rgba(28, 83, 142, 0)" offset="0"></stop><stop stop-color="#1c538e" offset="1"></stop></linearGradient></defs></svg>